<?xml version="1.0" encoding="UTF-8" standalone="no"?>
<svg
   xmlns:dc="http://purl.org/dc/elements/1.1/"
   xmlns:cc="http://creativecommons.org/ns#"
   xmlns:rdf="http://www.w3.org/1999/02/22-rdf-syntax-ns#"
   xmlns:svg="http://www.w3.org/2000/svg"
   xmlns="http://www.w3.org/2000/svg"
   xmlns:sodipodi="http://sodipodi.sourceforge.net/DTD/sodipodi-0.dtd"
   xmlns:inkscape="http://www.inkscape.org/namespaces/inkscape"
   width="40"
   height="40"
   viewBox="0 0 40 40.000002"
   fill="none"
   version="1.1"
   id="svg4"
   sodipodi:docname="logo.svg"
   inkscape:version="1.0.2 (e86c870879, 2021-01-15)">
  <metadata
     id="metadata10">
    <rdf:RDF>
      <cc:Work
         rdf:about="">
        <dc:format>image/svg+xml</dc:format>
        <dc:type
           rdf:resource="http://purl.org/dc/dcmitype/StillImage" />
        <dc:title></dc:title>
      </cc:Work>
    </rdf:RDF>
  </metadata>
  <defs
     id="defs8" />
  <sodipodi:namedview
     pagecolor="#ffffff"
     bordercolor="#666666"
     borderopacity="1"
     objecttolerance="10"
     gridtolerance="10"
     guidetolerance="10"
     inkscape:pageopacity="0"
     inkscape:pageshadow="2"
     inkscape:window-width="1920"
     inkscape:window-height="1016"
     id="namedview6"
     showgrid="false"
     fit-margin-top="0"
     fit-margin-left="0"
     fit-margin-right="0"
     fit-margin-bottom="0"
     inkscape:pagecheckerboard="true"
     units="px"
     inkscape:zoom="10.261905"
     inkscape:cx="-16.001726"
     inkscape:cy="8.483527"
     inkscape:window-x="0"
     inkscape:window-y="27"
     inkscape:window-maximized="1"
     inkscape:current-layer="svg4"
     inkscape:document-rotation="0" />
  <path
     d="m 10.853035,8.097399 3.947463,9.736633 c 0.427337,1.054005 1.149192,1.954518 2.074531,2.587991 0.925319,0.633432 2.01268,0.971607 3.124977,0.971607 1.112259,0 2.199678,-0.338175 3.124857,-0.971607 0.925379,-0.633473 1.647255,-1.533986 2.074691,-2.587991 l 3.947484,-9.7354606 c 0.922373,0.7840212 1.746602,1.6824892 2.453455,2.6747996 1.806092,2.520714 2.776138,5.569811 2.767726,8.698722 0,3.911244 -1.513857,7.662362 -4.208272,10.427964 -2.694616,2.765602 -6.349261,4.319379 -10.159941,4.319379 -3.810719,0 -7.465325,-1.553777 -10.1598803,-4.319379 C 7.1455503,27.134455 5.6317543,23.383337 5.6317543,19.472093 5.6228812,16.343301 6.5926263,13.294204 8.3983172,10.773371 9.1059316,9.7809215 9.9304204,8.8820958 10.853035,8.097399 Z M 13.670033,0 C 9.1656406,1.54255 5.342924,4.6797472 2.8858023,8.850305 0.42867062,13.020883 -0.50254309,17.952711 0.2587514,22.763417 1.0200459,27.574162 3.4241846,31.94997 7.0410345,35.107989 10.657884,38.26601 15.25149,40 20.000006,40 24.748482,40 29.342128,38.26601 32.958918,35.107989 36.575709,31.94997 38.979892,27.574162 39.741225,22.763417 40.50256,17.952711 39.571372,13.020883 37.114111,8.850305 34.65705,4.6797472 30.834352,1.54255 26.32984,0 l -6.329834,15.613444 z"
     fill="#ffffff"
     id="path2"
     style="fill:#ffffff;fill-opacity:1;stroke-width:1.99494" />
</svg>
